# xmcd
#
# Track frame offsets: 
#        150
#        20041
#        37344
#        62946
#        88641
#        116924
#        137586
#        176691
#        194946
#        209489
#
# Disc length: 3186 seconds
#
# Revision: 0
# Processed by: cddbd v1.5.2PL0 Copyright (c) Steve Scherf et al.
# Submitted via: ExactAudioCopy v1.3
#
DISCID=a40c700a
DTITLE=Buddy Guy and Junior Wells - Last Time Around - Live At Legends
DYEAR=1998
DGENRE=Chicago Blues
TTITLE0=Seeds Of Reed
TTITLE1=That's All Right
TTITLE2=She's All Right - Still A Fool
TTITLE3=Hoochie Coochie Man
TTITLE4=What I'd Say (It's All Right)
TTITLE5=Key To The Highway
TTITLE6=I've Been There
TTITLE7=Feelin' Good - What I'd Say
TTITLE8=Oh Baby - You Better Watch Yourself
TTITLE9=Hoodoo Man Blues
EXTD=
EXTT0=
EXTT1=
EXTT2=
EXTT3=
EXTT4=
EXTT5=
EXTT6=
EXTT7=
EXTT8=
EXTT9=
PLAYORDER=
